<?xml version="1.0" standalone="no"?>
<!DOCTYPE svg PUBLIC "-//W3C//DTD SVG 20010904//EN"
 "http://www.w3.org/TR/2001/REC-SVG-20010904/DTD/svg10.dtd">
<svg version="1.0" xmlns="http://www.w3.org/2000/svg"
 width="567.000000pt" height="567.000000pt" viewBox="0 0 567.000000 567.000000"
 preserveAspectRatio="xMidYMid meet">

<g transform="translate(0.000000,567.000000) scale(0.100000,-0.100000)"
fill="#000000" stroke="#f3f315">
<path style="fill:white" d="M4935 5025 c-422 -74 -775 -219 -1178 -481 -314 -205 -514 -373
-1267 -1063 -140 -128 -268 -240 -285 -247 -16 -7 -93 -23 -170 -34 -396 -58
-631 -167 -878 -408 -130 -127 -200 -209 -326 -375 -111 -149 -111 -150 17
-279 120 -120 134 -123 233 -53 140 99 259 175 358 231 94 53 112 59 173 62
37 3 68 1 68 -3 0 -4 -16 -35 -35 -69 -64 -114 -88 -78 353 -519 440 -440 404
-415 516 -352 35 19 67 35 71 35 4 0 5 -29 2 -64 -9 -96 -87 -243 -252 -475
-46 -64 -86 -126 -89 -138 -11 -34 14 -70 112 -165 124 -121 113 -123 327 44
199 155 411 361 482 468 131 197 181 345 248 735 10 56 27 116 39 136 11 20
145 171 297 335 460 497 634 699 843 978 246 327 416 636 530 965 67 191 136
517 136 639 0 123 -66 143 -325 97z m-812 -844 c164 -64 282 -223 294 -397 17
-240 -154 -449 -397 -487 -188 -29 -389 81 -471 258 -83 177 -54 368 78 506
65 69 118 103 201 130 78 26 214 21 295 -10z"/>
<path style="fill:#f3f315" d="M1140 1790 c-204 -55 -423 -206 -599 -414 -81 -95 -93 -132 -38 -122
77 14 103 16 114 9 8 -6 -2 -48 -38 -154 -75 -221 -93 -321 -92 -520 0 -91 3
-177 7 -192 8 -32 28 -34 65 -8 50 36 131 55 228 56 109 0 116 -5 138 -90 16
-59 30 -85 47 -85 5 0 30 20 56 44 76 71 100 79 247 87 194 10 282 51 426 201
l76 79 11 -39 c26 -87 53 -77 127 45 173 284 168 555 -14 795 -88 115 -257
244 -388 295 -95 36 -264 42 -373 13z"/>
</g>
</svg>
